<?xml version="1.0" standalone="no"?>
<!DOCTYPE svg PUBLIC "-//W3C//DTD SVG 20010904//EN"
        "http://www.w3.org/TR/2001/REC-SVG-20010904/DTD/svg10.dtd">
<svg version="1.0" xmlns="http://www.w3.org/2000/svg"
     width="236.000000pt" height="236.000000pt" viewBox="0 0 236.000000 236.000000"
     preserveAspectRatio="xMidYMid meet">
    <metadata>
        Created by potrace 1.11, written by Peter Selinger 2001-2013
    </metadata>
    <g transform="translate(0.000000,236.000000) scale(0.100000,-0.100000)"
       fill="#000000" stroke="none">
        <path d="M555 1776 c-148 -68 -157 -199 -21 -324 129 -119 355 -216 607 -262
114 -20 375 -27 444 -11 17 4 -22 8 -90 8 -66 0 -156 6 -200 12 -167 25 -396
96 -500 154 l-40 23 -3 127 -3 127 411 0 410 0 0 -195 c0 -206 -1 -202 48
-189 l22 6 0 229 0 229 -485 0 -485 0 0 -135 c0 -74 -4 -135 -9 -135 -19 0
-109 108 -125 152 -26 67 -15 111 39 165 23 24 40 43 36 43 -3 0 -29 -11 -56
-24z"/>
        <path d="M1142 1483 c-1 -34 1 -44 8 -33 11 16 10 80 -1 80 -3 0 -7 -21 -7
-47z"/>
        <path d="M1816 1488 c66 -75 68 -151 7 -219 -46 -50 -100 -82 -194 -114 -134
-46 -241 -58 -453 -52 -200 6 -327 27 -455 76 -78 29 -74 20 6 -16 78 -35 172
-66 256 -84 43 -9 57 -16 55 -28 -3 -13 -20 -16 -91 -18 -76 -2 -87 0 -87 15
-1 16 -1 16 -11 0 -7 -13 -22 -18 -51 -18 l-41 0 6 37 c4 20 3 32 -2 27 -13
-13 -111 -187 -111 -196 0 -9 993 -11 1002 -2 4 3 -7 41 -23 85 -34 94 -35 99
-10 99 28 0 159 48 206 76 77 44 125 110 125 170 0 54 -72 147 -142 185 -20
11 -19 7 8 -23z m-706 -443 c0 -8 -9 -15 -20 -15 -13 0 -18 5 -14 15 4 8 12
15 20 15 8 0 14 -7 14 -15z m414 0 c4 -11 -1 -15 -19 -15 -16 0 -25 6 -25 15
0 8 9 15 19 15 10 0 21 -7 25 -15z m-344 -5 c0 -5 -9 -10 -21 -10 -11 0 -17 5
-14 10 3 6 13 10 21 10 8 0 14 -4 14 -10z m70 0 c0 -5 -7 -10 -15 -10 -8 0
-15 5 -15 10 0 6 7 10 15 10 8 0 15 -4 15 -10z m60 0 c0 -5 -4 -10 -10 -10 -5
0 -10 5 -10 10 0 6 5 10 10 10 6 0 10 -4 10 -10z m70 0 c0 -5 -4 -10 -10 -10
-5 0 -10 5 -10 10 0 6 5 10 10 10 6 0 10 -4 10 -10z m65 0 c3 -5 -1 -10 -9
-10 -9 0 -16 5 -16 10 0 6 4 10 9 10 6 0 13 -4 16 -10z m-630 -60 c-3 -5 -19
-10 -36 -10 -16 0 -29 5 -29 10 0 6 16 10 36 10 21 0 33 -4 29 -10z m70 0 c-3
-5 -13 -10 -21 -10 -8 0 -14 5 -14 10 0 6 9 10 21 10 11 0 17 -4 14 -10z m65
0 c0 -5 -9 -10 -20 -10 -11 0 -20 5 -20 10 0 6 9 10 20 10 11 0 20 -4 20 -10z
m65 0 c-3 -5 -15 -10 -26 -10 -10 0 -19 5 -19 10 0 6 12 10 26 10 14 0 23 -4
19 -10z m70 0 c-3 -5 -13 -10 -21 -10 -8 0 -14 5 -14 10 0 6 9 10 21 10 11 0
17 -4 14 -10z m70 0 c-3 -5 -13 -10 -21 -10 -8 0 -12 5 -9 10 3 6 13 10 21 10
8 0 12 -4 9 -10z m75 0 c0 -5 -7 -10 -15 -10 -8 0 -15 5 -15 10 0 6 7 10 15
10 8 0 15 -4 15 -10z m70 0 c0 -5 -7 -10 -15 -10 -8 0 -15 5 -15 10 0 6 7 10
15 10 8 0 15 -4 15 -10z m100 0 c0 -5 -7 -10 -15 -10 -8 0 -15 5 -15 10 0 6 7
10 15 10 8 0 15 -4 15 -10z m70 0 c0 -5 -7 -10 -15 -10 -8 0 -15 5 -15 10 0 6
7 10 15 10 8 0 15 -4 15 -10z m80 0 c0 -5 -9 -10 -19 -10 -11 0 -23 5 -26 10
-4 6 5 10 19 10 14 0 26 -4 26 -10z"/>
        <path d="M1092 1480 c-57 -54 -1 -149 78 -134 28 6 60 36 60 56 0 16 -18 7
-23 -12 -6 -22 -46 -35 -81 -26 -15 4 -28 18 -35 38 -10 28 -9 36 10 61 25 35
20 44 -9 17z"/>
        <path d="M1180 1490 c0 -6 7 -13 15 -16 8 -3 17 -15 21 -26 3 -11 8 -17 11
-15 3 3 2 15 -2 26 -7 23 -45 49 -45 31z"/>
        <path d="M702 668 c3 -125 4 -133 23 -133 19 0 20 8 23 133 l3 132 -26 0 -26
0 3 -132z"/>
        <path d="M812 791 c-18 -11 -12 -45 8 -48 27 -5 46 14 34 34 -13 21 -25 25
-42 14z"/>
        <path d="M273 776 c-75 -34 -91 -157 -27 -217 37 -35 121 -35 158 0 80 75 42
215 -61 227 -21 2 -52 -2 -70 -10z m91 -49 c25 -19 33 -90 12 -122 -36 -55
-111 -18 -111 55 0 65 53 101 99 67z"/>
        <path d="M1353 780 c-12 -5 -29 -20 -39 -35 -24 -37 -5 -78 52 -104 29 -14 44
-27 44 -40 0 -23 -33 -33 -67 -20 -35 13 -43 11 -43 -11 0 -28 36 -43 87 -37
55 6 83 30 83 73 0 34 -16 51 -80 87 -44 24 -34 42 23 41 42 0 47 2 47 22 0
33 -54 45 -107 24z"/>
        <path d="M1533 753 c-7 -2 -13 -13 -13 -24 0 -10 -7 -19 -15 -19 -8 0 -15 -7
-15 -15 0 -9 7 -18 15 -21 10 -4 15 -21 15 -53 0 -62 22 -93 63 -89 35 3 46
33 16 41 -28 8 -28 92 1 100 11 3 20 10 20 17 0 7 -9 14 -20 17 -13 3 -20 14
-20 29 0 24 -17 30 -47 17z"/>
        <path d="M568 706 c-16 -8 -28 -11 -28 -5 0 5 -13 9 -30 9 l-30 0 0 -84 c0
-76 2 -85 20 -91 32 -10 40 3 40 65 0 48 4 61 19 69 28 15 39 -5 43 -74 3 -56
4 -60 28 -60 25 0 25 1 23 75 -1 63 -5 77 -23 92 -27 22 -28 22 -62 4z"/>
        <path d="M982 704 c-12 -8 -22 -10 -22 -5 0 6 -13 11 -30 11 l-30 0 0 -84 c0
-88 6 -102 40 -91 17 5 20 15 20 64 0 65 15 89 43 68 11 -8 17 -31 19 -72 3
-54 5 -60 26 -63 21 -3 22 -1 22 77 0 71 -2 82 -22 95 -12 9 -27 16 -33 16 -6
0 -21 -7 -33 -16z"/>
        <path d="M1164 710 c-57 -23 -73 -112 -29 -155 37 -38 125 -33 125 5 0 16 -6
18 -35 13 -34 -5 -65 8 -65 28 0 5 28 9 61 9 l62 0 -7 32 c-11 56 -64 88 -112
68z m54 -42 c20 -20 14 -28 -23 -28 -19 0 -35 4 -35 8 0 12 22 32 35 32 6 0
16 -5 23 -12z"/>
        <path d="M1705 713 c-38 -9 -65 -44 -65 -84 0 -21 3 -45 6 -54 9 -21 56 -45
92 -45 95 0 124 139 37 175 -36 16 -37 16 -70 8z m65 -86 c0 -52 -33 -73 -64
-41 -23 22 -20 60 6 78 31 22 58 4 58 -37z"/>
        <path d="M2060 713 c-63 -24 -83 -111 -35 -158 37 -38 125 -33 125 5 0 16 -6
18 -35 13 -33 -5 -65 8 -65 28 0 4 26 9 58 11 56 3 57 3 55 32 -4 48 -60 86
-103 69z m48 -56 c3 -13 -3 -17 -27 -17 -33 0 -39 8 -19 28 17 17 42 11 46
-11z"/>
        <path d="M802 623 c3 -86 3 -88 28 -88 25 0 25 2 28 88 l3 87 -31 0 -31 0 3
-87z"/>
        <path d="M1862 623 c3 -86 3 -88 28 -88 23 0 25 4 28 55 3 60 14 80 43 80 12
0 19 7 19 20 0 23 -29 27 -48 8 -9 -9 -12 -9 -12 0 0 7 -13 12 -30 12 l-31 0
3 -87z"/>
    </g>
</svg>
